HIERARCHY
ROOT Hips
{
	OFFSET 0.000000 0.000000 0.000000
	CHANNELS 6 Xposition Yposition Zposition Xrotation Yrotation Zrotation
	JOINT LeftUpLeg_virtual
	{
		OFFSET 0.000000 0.000000 0.000000
		CHANNELS 3 Xrotation Yrotation Zrotation
		JOINT LeftUpLeg
		{
			OFFSET 11.394100 -6.187798 -0.413800
			CHANNELS 3 Xrotation Yrotation Zrotation
			JOINT LeftLeg
			{
				OFFSET 0.430247 -32.302673 3.732800
				CHANNELS 3 Xrotation Yrotation Zrotation
				JOINT LeftFoot
				{
					OFFSET -0.430247 -48.264931 -6.423300
					CHANNELS 3 Xrotation Yrotation Zrotation
					JOINT LeftToeBase
					{
						OFFSET 4.230900 -16.068199 23.438400
						CHANNELS 3 Xrotation Yrotation Zrotation
						JOINT LeftToe_End
						{
							OFFSET 4.510700 0.695400 19.974600
							CHANNELS 3 Xrotation Yrotation Zrotation
							End Site
							{
								OFFSET 0 0 0
							}
						}
					}
				}
			}
		}
	}
	JOINT RightUpLeg_virtual
	{
		OFFSET 0.000000 0.000000 0.000000
		CHANNELS 3 Xrotation Yrotation Zrotation
		JOINT RightUpLeg
		{
			OFFSET -11.333700 -6.187798 -0.413800
			CHANNELS 3 Xrotation Yrotation Zrotation
			JOINT RightLeg
			{
				OFFSET -0.430392 -32.302628 3.733000
				CHANNELS 3 Xrotation Yrotation Zrotation
				JOINT RightFoot
				{
					OFFSET 0.430392 -48.264973 -6.423500
					CHANNELS 3 Xrotation Yrotation Zrotation
					JOINT RightToeBase
					{
						OFFSET -4.230900 -16.068199 23.438400
						CHANNELS 3 Xrotation Yrotation Zrotation
						JOINT RightToe_End
						{
							OFFSET -4.510700 0.695400 19.974600
							CHANNELS 3 Xrotation Yrotation Zrotation
							End Site
							{
								OFFSET 0 0 0
							}
						}
					}
				}
			}
		}
	}
	JOINT Spine_virtual
	{
		OFFSET 0.000000 0.000000 0.000000
		CHANNELS 3 Xrotation Yrotation Zrotation
		JOINT Spine
		{
			OFFSET -0.002400 12.777504 0.315300
			CHANNELS 3 Xrotation Yrotation Zrotation
			JOINT Spine1
			{
				OFFSET -0.002067 5.816869 0.032633
				CHANNELS 3 Xrotation Yrotation Zrotation
				JOINT Spine1_split
				{
					OFFSET -0.002067 5.816869 0.032633
					CHANNELS 3 Xrotation Yrotation Zrotation
					JOINT Spine2
					{
						OFFSET -0.002067 5.816869 0.032633
						CHANNELS 3 Xrotation Yrotation Zrotation
						JOINT Neck_virtual
						{
							OFFSET 0.000000 0.000000 0.000000
							CHANNELS 3 Xrotation Yrotation Zrotation
							JOINT Neck
							{
								OFFSET -0.003700 21.199493 -0.826900
								CHANNELS 3 Xrotation Yrotation Zrotation
								JOINT Head
								{
									OFFSET 0.000000 20.442200 4.834800
									CHANNELS 3 Xrotation Yrotation Zrotation
									JOINT HeadTop_End
									{
										OFFSET 0.000000 34.668396 4.968400
										CHANNELS 3 Xrotation Yrotation Zrotation
										End Site
										{
											OFFSET 0 0 0
										}
									}
								}
							}
						}
						JOINT LeftShoulder_virtual
						{
							OFFSET 0.000000 0.000000 0.000000
							CHANNELS 3 Xrotation Yrotation Zrotation
							JOINT LeftShoulder
							{
								OFFSET 3.288150 8.794197 -1.372250
								CHANNELS 3 Xrotation Yrotation Zrotation
								JOINT LeftShoulder_split
								{
									OFFSET 3.288150 8.794197 -1.372250
									CHANNELS 3 Xrotation Yrotation Zrotation
									JOINT LeftArm
									{
										OFFSET 11.953299 -2.279007 -0.146200
										CHANNELS 3 Xrotation Yrotation Zrotation
										JOINT LeftForeArm
										{
											OFFSET 18.448900 0.000000 0.000000
											CHANNELS 3 Xrotation Yrotation Zrotation
											JOINT LeftHand
											{
												OFFSET 29.527798 0.000000 0.000000
												CHANNELS 3 Xrotation Yrotation Zrotation
												End Site
												{
													OFFSET 0 0 0
												}
											}
										}
									}
								}
							}
						}
						JOINT RightShoulder_virtual
						{
							OFFSET 0.000000 0.000000 0.000000
							CHANNELS 3 Xrotation Yrotation Zrotation
							JOINT RightShoulder
							{
								OFFSET -3.249400 8.794197 -1.372250
								CHANNELS 3 Xrotation Yrotation Zrotation
								JOINT RightShoulder_split
								{
									OFFSET -3.249400 8.794197 -1.372250
									CHANNELS 3 Xrotation Yrotation Zrotation
									JOINT RightArm
									{
										OFFSET -11.953299 -2.279007 -0.146200
										CHANNELS 3 Xrotation Yrotation Zrotation
										JOINT RightForeArm
										{
											OFFSET -18.448900 0.000000 0.000000
											CHANNELS 3 Xrotation Yrotation Zrotation
											JOINT RightHand
											{
												OFFSET -29.527802 0.000000 0.000000
												CHANNELS 3 Xrotation Yrotation Zrotation
												End Site
												{
													OFFSET 0 0 0
												}
											}
										}
									}
								}
							}
						}
					}
				}
			}
		}
	}
}
MOTION
Frames: 5
Frame Time: 0.03333333
-0.116084 107.842957 -4.568256 0.000000 0.000000 0.000000 -87.572485 -4.945572 -1.955989 3.357217 22.147949 14.556825 -3.503007 5.995881 4.547002 23.560808 28.011639 -26.011497 -5.828081 -0.207447 0.201357 0.000000 0.000000 0.000000 -90.220652 -1.489769 0.318913 5.670640 -21.233282 -11.481843 -1.034643 -2.683528 -6.692043 36.104015 -30.199746 29.034817 -13.507514 1.287416 -2.743864 0.000000 0.000000 0.000000 -88.401820 -6.024412 -3.664642 2.379282 -1.436758 0.827970 -2.629181 -1.195531 0.537309 1.206365 2.527277 -0.277622 0.000000 0.000000 0.000000 -2.416318 -1.678259 0.412888 -11.330649 -2.259354 -1.447768 15.168018 -0.040978 3.195384 0.000000 0.000000 0.000000 -0.489287 -1.604681 0.751585 0.755080 1.305726 -5.609662 -1.247126 0.529657 -2.808327 37.894108 -28.488632 -54.941704 -154.479085 -88.549632 -153.473668 0.000000 0.000000 0.000000 -0.427191 -1.203194 0.223318 0.620539 -2.705276 13.777122 2.662623 4.631334 -0.476632 28.020129 24.471777 47.277057 178.756036 79.165909 -179.898522 0.000000 0.000000 0.000000 
-0.310296 107.998390 -4.060734 0.000000 0.000000 0.000000 -87.449726 -4.610128 -1.784122 2.911310 22.292998 14.830774 -3.574957 6.020620 4.444942 23.733478 27.712980 -26.277833 -5.870223 -0.225888 0.241211 0.000000 0.000000 0.000000 -89.686586 -1.230506 0.374178 5.787404 -20.745544 -11.535886 -1.292725 -2.755550 -6.678381 36.612041 -30.252779 29.202419 -13.378706 1.295961 -2.686362 0.000000 0.000000 0.000000 -88.158993 -6.062101 -3.843859 2.101119 -1.545808 0.820980 -2.718522 -1.262992 0.433829 0.997475 2.133977 -0.391497 0.000000 0.000000 0.000000 -2.541005 -1.707152 0.329547 -11.354129 -2.114850 -1.447555 15.343713 -0.189724 2.987128 0.000000 0.000000 0.000000 -0.485060 -1.657796 0.663923 0.791465 0.735927 -5.307963 -0.714737 0.378772 -2.469927 37.672236 -28.742628 -54.989320 -140.169839 -88.688203 -139.071258 0.000000 0.000000 0.000000 -0.485311 -1.234421 0.135144 0.652351 -3.057456 13.749897 2.522355 4.408161 0.417323 26.912503 25.272450 48.498110 -179.753585 79.970396 178.526870 0.000000 0.000000 0.000000 
-0.412228 108.184830 -3.708782 0.000000 0.000000 0.000000 -87.184694 -4.635280 -1.849476 2.614323 22.203077 15.102409 -3.572817 6.115494 4.359434 23.729843 27.526511 -26.170876 -5.843719 -0.233317 0.222130 0.000000 0.000000 0.000000 -89.027247 -1.175315 0.317261 5.468281 -20.437727 -11.545158 -1.553493 -2.848546 -6.674997 37.467665 -30.200440 29.576642 -13.557240 1.358731 -2.699113 0.000000 0.000000 0.000000 -87.786659 -6.199361 -4.046760 1.838445 -1.635462 0.879782 -2.850361 -1.341332 0.246677 0.758757 1.781082 -0.433738 0.000000 0.000000 0.000000 -2.598436 -1.772744 0.189948 -11.461490 -2.070524 -1.279133 15.354796 -0.461433 2.931469 0.000000 0.000000 0.000000 -0.604403 -1.704037 0.496841 0.851007 -0.185642 -4.747814 -0.422044 0.908244 -2.586686 38.199937 -29.348998 -54.130875 -136.265607 -88.839888 -135.141891 0.000000 0.000000 0.000000 -0.582744 -1.280417 -0.002089 0.701909 -3.647346 13.687511 2.326401 4.065827 0.822413 23.667563 25.692962 51.878405 -178.678213 81.430123 177.343785 0.000000 0.000000 0.000000 
-0.398430 108.296570 -3.514740 0.000000 0.000000 0.000000 -86.831519 -5.039441 -2.121623 2.485149 21.758766 15.229951 -3.425687 6.191832 4.351919 23.524194 27.518788 -25.726066 -5.699237 -0.225544 0.105237 0.000000 0.000000 0.000000 -88.440602 -1.335147 0.236456 4.712202 -20.351824 -11.558883 -1.718486 -2.989270 -6.713376 38.252966 -30.191212 29.916826 -13.813876 1.439518 -2.738916 0.000000 0.000000 0.000000 -87.354930 -6.433228 -4.187438 1.632735 -1.693919 0.947835 -2.989925 -1.394847 0.028006 0.475748 1.611452 -0.399228 0.000000 0.000000 0.000000 -2.579826 -1.840528 0.025499 -11.570315 -2.109814 -1.049814 15.268531 -0.799073 2.945367 0.000000 0.000000 0.000000 -0.837412 -1.726060 0.293645 0.925760 -1.282551 -4.144611 -0.401810 1.954946 -3.137720 39.224878 -30.025880 -52.626263 -140.610987 -89.065394 -139.509168 0.000000 0.000000 0.000000 -0.723802 -1.313648 -0.147043 0.794810 -4.344712 13.664767 2.203640 3.756671 0.614424 18.693102 25.252854 56.770552 -177.958817 83.582439 176.521936 0.000000 0.000000 0.000000 
-0.246648 108.307037 -3.428783 0.000000 0.000000 0.000000 -86.460148 -5.687829 -2.406266 2.512910 20.957112 15.115159 -3.157504 6.139380 4.428422 23.258078 27.594813 -25.173878 -5.529526 -0.202205 -0.075792 0.000000 0.000000 0.000000 -87.973403 -1.694720 0.218706 3.617419 -20.397930 -11.673287 -1.716202 -3.192831 -6.808018 38.500571 -30.460936 29.919029 -13.731265 1.499455 -2.752837 0.000000 0.000000 0.000000 -86.900756 -6.708578 -4.180415 1.518896 -1.734312 0.943778 -3.081993 -1.381673 -0.154075 0.334291 1.471812 -0.422823 0.000000 0.000000 0.000000 -2.500678 -1.884184 -0.112531 -11.569681 -2.180871 -0.911004 15.248732 -1.066124 2.892287 0.000000 0.000000 0.000000 -1.115100 -1.716038 0.123726 0.993669 -2.344113 -3.769661 -0.624223 3.027864 -3.646857 40.385215 -30.499882 -50.827638 -154.201042 -89.265648 -153.166705 0.000000 0.000000 0.000000 -0.885530 -1.325435 -0.248288 0.916783 -4.966241 13.780922 1.951287 3.757471 0.094292 12.934503 23.804007 62.020030 -177.904722 86.366813 176.386248 0.000000 0.000000 0.000000 
